<?xml version="1.0" encoding="UTF-8" standalone="no"?>
<!-- Generator: Adobe Illustrator 16.0.3, SVG Export Plug-In . SVG Version: 6.00 Build 0)  -->

<svg
   xmlns:dc="http://purl.org/dc/elements/1.1/"
   xmlns:cc="http://creativecommons.org/ns#"
   xmlns:rdf="http://www.w3.org/1999/02/22-rdf-syntax-ns#"
   xmlns:svg="http://www.w3.org/2000/svg"
   xmlns="http://www.w3.org/2000/svg"
   xmlns:sodipodi="http://sodipodi.sourceforge.net/DTD/sodipodi-0.dtd"
   xmlns:inkscape="http://www.inkscape.org/namespaces/inkscape"
   version="1.1"
   id="Layer_1"
   x="0px"
   y="0px"
   width="120mm"
   height="120mm"
   viewBox="0 0 453.54334 453.54331"
   enable-background="new 0 0 595.281 841.891"
   xml:space="preserve"
   sodipodi:docname="favicon.svg"
   inkscape:version="0.92.4 (5da689c313, 2019-01-14)"><metadata
   id="metadata13"><rdf:RDF><cc:Work
       rdf:about=""><dc:format>image/svg+xml</dc:format><dc:type
         rdf:resource="http://purl.org/dc/dcmitype/StillImage" /><dc:title></dc:title></cc:Work></rdf:RDF></metadata><defs
   id="defs11" /><sodipodi:namedview
   pagecolor="#ffffff"
   bordercolor="#666666"
   borderopacity="1"
   objecttolerance="10"
   gridtolerance="10"
   guidetolerance="10"
   inkscape:pageopacity="0"
   inkscape:pageshadow="2"
   inkscape:window-width="2400"
   inkscape:window-height="1321"
   id="namedview9"
   showgrid="false"
   inkscape:zoom="0.28032133"
   inkscape:cx="256.00025"
   inkscape:cy="166.71951"
   inkscape:window-x="-9"
   inkscape:window-y="-9"
   inkscape:window-maximized="1"
   inkscape:current-layer="Layer_1"
   units="mm"
   fit-margin-top="0"
   fit-margin-left="0"
   fit-margin-right="0"
   fit-margin-bottom="0" />
<g
   id="Layer_x0020_1"
   transform="matrix(0.67949725,0,0,0.67949725,21.648247,1.3309195)">
	<g
   id="_921457168">
		<path
   d="M 464.632,212.901 337.566,83.292 c -22.014,-22.454 -57.758,-22.454 -79.771,0 l -126.63,129.386 c -7.411,7.559 -7.411,19.563 0,27.122 l 38.359,39.127 25.5,24.232 c 7.628,7.114 19.18,7.114 26.808,0 l 51.219,-48.242 c 14.167,-13.338 35.744,-13.338 49.693,0 l 51.219,48.242 c 7.629,7.114 19.18,7.114 26.809,0 l 25.501,-24.232 38.359,-38.904 c 7.193,-7.337 7.193,-19.563 0,-27.122 z"
   id="path2"
   inkscape:connector-curvature="0"
   style="fill:#b0bec5" />
		<path
   d="m 58.804,367.853 198.991,202.973 c 22.013,22.452 57.757,22.452 79.771,0 L 536.557,367.853 c 34.437,-35.125 10.244,-45.574 -15.039,-70.029 L 490.35,267.59 c -7.409,-7.336 -19.18,-7.113 -26.808,0 l -51.218,48.242 c -14.169,13.339 -35.744,13.339 -49.694,0 L 311.411,267.59 c -7.575,-7.113 -19.233,-7.113 -26.809,0 l -51.219,48.242 c -14.167,13.339 -35.744,13.339 -49.693,0 L 132.471,267.59 c -7.576,-7.113 -19.233,-7.113 -26.809,0 l -28.77,27.123 c -26.37,24.899 -54.05,36.236 -18.088,73.14 z"
   id="path4"
   inkscape:connector-curvature="0"
   style="fill:#455a64" />
	</g>
</g>
</svg>